# xmcd
# 
# Track frame offsets:
#     150
#     11795
#     38585
#     61629
#     85665
#     99965
#     110897
#     121725
#     138346
#     154417
#     169652
#     181076
#     205248
#     227214
#     253036
#     271724
#     295560
# 
# Disc length: 4191
# 
# Revision: 1
# Processed by: cddbd v1.5.2PL0 Copyright (c) Steve Scherf et al.
# Submitted via: fre:ac v1.0.17
# 
DISCID=d9105d11
DTITLE=Various Artist - Eugene Blues (An Anthology)
DYEAR=2000
DGENRE=Blues
TTITLE0=Olem Alves Band - Late at Night
TTITLE1=JC Rico - Never Gonna Change
TTITLE2=JC Rico - Drive By Blues
TTITLE3=Nicolette Helm and Queen Bee - 199 Degrees
TTITLE4=Zydeblue - Kick Up Some Heat
TTITLE5=Vintage Blues Band - My Real Cool Baby
TTITLE6=David Jacobs-Strain - Cottonwood Grove
TTITLE7=Walker T Ryan - Intersection
TTITLE8=The HepCats - HepCat Jump
TTITLE9=The JiveMasters - Kitchen Sink Boogie
TTITLE10=The Deb Cleveland Band - Muddy Water
TTITLE11=The Deb Cleveland Band - Jump Into My Fire
TTITLE12=The Vipers featuring Eagle Park Slim - It's Raining Everywhere
TTITLE13=The Vipers featuring Eagle Park Slim - Chicken and the Hawk
TTITLE14=The Vipers featuring Eagle Park Slim - You Win In
TTITLE15=The Vipers with Henry Vestine - Found Love
TTITLE16=Don Latarski and Rue de Blues - Don't Diminish My Blues
EXTD=Blues from local groups around the Eugene, OR area.
EXTT0=
EXTT1=
EXTT2=
EXTT3=
EXTT4=
EXTT5=
EXTT6=
EXTT7=
EXTT8=
EXTT9=
EXTT10=
EXTT11=
EXTT12=
EXTT13=
EXTT14=
EXTT15=
EXTT16=
PLAYORDER=
